<?xml version="1.0" encoding="UTF-8" standalone="no"?>
<!-- Created with Inkscape (http://www.inkscape.org/) -->

<svg
   version="1.1"
   id="svg1"
   width="1641.7025"
   height="1092.3036"
   viewBox="0 0 1641.7025 1092.3036"
   xmlns="http://www.w3.org/2000/svg"
   xmlns:svg="http://www.w3.org/2000/svg">
  <defs
     id="defs1" />
  <g
     id="layer1"
     transform="rotate(145,1269.5516,1056.9368)">
    <path
       style="display:inline;fill:#000000;fill-opacity:0;stroke:#778899;stroke-width:24.5;stroke-dasharray:none;stroke-opacity:1"
       d="M 1819.8264,2034.7208 971.86474,1765.6188 588.5396,1519.7486"
       id="path6" />
    <path
       style="display:inline;fill:#000000;fill-opacity:0;stroke:#778899;stroke-width:24.5;stroke-dasharray:none;stroke-opacity:1"
       d="m 983.48065,826.66583 576.92365,1128.67957 -170.3667,92.9273 -94.8633,284.5899"
       id="path7" />
    <path
       style="fill:#000000;fill-opacity:0;stroke:#778899;stroke-width:24.5;stroke-dasharray:none;stroke-opacity:1"
       d="M 1560.4043,1951.4734 989.28861,2081.1845"
       id="path9" />
    <path
       style="fill:#000000;fill-opacity:0;stroke:#778899;stroke-width:24.5;stroke-dasharray:none;stroke-opacity:1"
       d="M 685.8432,1927.4795 1245.7431,1853.5563 922.67129,1555.81"
       id="path10" />
    <path
       style="fill:#696969;fill-opacity:1;stroke:#ffffff;stroke-width:8;stroke-dasharray:none;stroke-opacity:1"
       d="m 1767.3125,1980.8685 -59.5492,-50.6511 70.5008,-80.0835 59.5493,50.6511 2.0534,25.3255 -23.9566,30.1169 z"
       id="path11" />
    <path
       style="fill:#696969;fill-opacity:1;stroke:#ffffff;stroke-width:8;stroke-dasharray:none;stroke-opacity:1"
       d="m 1843.9736,1876.1439 128.6812,1.369 v 65.025 l 15.7429,8.2137 -0.6845,78.0301 -17.7963,23.2721 -1.3689,71.1853 -126.6278,-0.6844 0.6845,-61.6027 -17.7963,-9.5827 -0.6845,-77.3456 18.4808,-20.5342 z"
       id="path12" />
    <path
       style="fill:#696969;fill-opacity:1;stroke:#ffffff;stroke-width:8;stroke-dasharray:none;stroke-opacity:1"
       d="m 1973.3393,2076.6949 26.6945,-29.4324 45.1753,-23.9566 58.1803,48.5977 -67.763,80.0835 -58.8648,-49.2822 z"
       id="path13" />
    <circle
       style="fill:#000000;fill-opacity:0;stroke:#ffffff;stroke-width:8;stroke-dasharray:none;stroke-opacity:1"
       id="path14"
       cx="1908.3142"
       cy="2004.1406"
       r="54.073467" />
    <circle
       style="fill:#ec4135;fill-opacity:0.8;stroke:#778899;stroke-width:0;stroke-dasharray:none;stroke-opacity:1"
       id="path1"
       cx="-2083.7981"
       cy="-804.31189"
       r="30.975769"
       transform="rotate(-145)" />
    <circle
       style="fill:#60b846;fill-opacity:0.8;stroke:#60b846;stroke-width:0;stroke-dasharray:none;stroke-opacity:0.533333"
       id="path1-7"
       cx="-2403.3091"
       cy="-705.22424"
       r="30.975769"
       transform="rotate(-145)" />
    <circle
       style="fill:#ffd800;fill-opacity:0.8;stroke:#778899;stroke-width:0;stroke-dasharray:none;stroke-opacity:1"
       id="path1-7-9"
       cx="-2314.1479"
       cy="-881.99066"
       r="30.975769"
       transform="rotate(-145)" />
  </g>
</svg>
